<?xml version="1.0" encoding="UTF-8" standalone="no"?>
<!DOCTYPE svg PUBLIC "-//W3C//DTD SVG 1.1//EN" "http://www.w3.org/Graphics/SVG/1.1/DTD/svg11.dtd">
<svg width="100%" height="100%" viewBox="0 0 3000 3000" version="1.1" xmlns="http://www.w3.org/2000/svg" xmlns:xlink="http://www.w3.org/1999/xlink" xml:space="preserve" xmlns:serif="http://www.serif.com/" style="fill-rule:evenodd;clip-rule:evenodd;stroke-linejoin:round;stroke-miterlimit:2;">
    <path d="M3000,750C3000,336.064 2663.94,0 2250,0L750,0C336.064,0 0,336.064 0,750L0,2250C0,2663.94 336.064,3000 750,3000L2250,3000C2663.94,3000 3000,2663.94 3000,2250L3000,750Z" style="fill:url(#_Linear1);"/>
    <g transform="matrix(0.917093,0,0,0.917093,-126.739,117.064)">
        <g transform="matrix(1499.07,0,0,1499.07,401.743,1963.13)">
            <path d="M0.323,-0.53L0.287,-0.445C0.244,-0.436 0.209,-0.409 0.182,-0.364C0.156,-0.319 0.143,-0.27 0.143,-0.218C0.143,-0.176 0.154,-0.143 0.177,-0.116C0.2,-0.09 0.23,-0.073 0.265,-0.065L0.316,-0.307C0.328,-0.362 0.34,-0.405 0.353,-0.434C0.365,-0.463 0.383,-0.486 0.406,-0.504C0.428,-0.521 0.454,-0.53 0.483,-0.53C0.524,-0.53 0.561,-0.512 0.593,-0.476C0.624,-0.44 0.64,-0.389 0.64,-0.324C0.64,-0.258 0.625,-0.199 0.593,-0.145C0.562,-0.091 0.527,-0.053 0.488,-0.031C0.449,-0.008 0.399,0.006 0.336,0.012L0.298,0.199L0.209,0.199L0.248,0.012C0.186,0.003 0.138,-0.024 0.105,-0.069C0.071,-0.114 0.054,-0.167 0.054,-0.227C0.054,-0.304 0.08,-0.374 0.131,-0.435C0.182,-0.497 0.246,-0.529 0.323,-0.53ZM0.353,-0.066C0.417,-0.075 0.467,-0.105 0.503,-0.158C0.538,-0.211 0.556,-0.27 0.556,-0.335C0.556,-0.375 0.55,-0.406 0.537,-0.427C0.525,-0.447 0.508,-0.458 0.488,-0.458C0.467,-0.458 0.451,-0.447 0.44,-0.427C0.429,-0.407 0.417,-0.368 0.405,-0.311L0.353,-0.066Z" style="fill:white;fill-rule:nonzero;"/>
        </g>
        <g transform="matrix(1499.07,0,0,1499.07,1379.65,1963.13)">
            <path d="M0.264,-0.806C0.197,-0.745 0.143,-0.673 0.103,-0.591C0.064,-0.508 0.044,-0.415 0.044,-0.312C0.044,-0.209 0.064,-0.116 0.103,-0.034C0.143,0.049 0.197,0.121 0.264,0.182L0.278,0.169C0.222,0.104 0.183,0.032 0.161,-0.046C0.139,-0.123 0.128,-0.212 0.128,-0.312C0.128,-0.412 0.139,-0.501 0.161,-0.579C0.183,-0.656 0.222,-0.728 0.278,-0.793L0.264,-0.806Z" style="fill:white;fill-rule:nonzero;"/>
        </g>
        <g transform="matrix(1499.07,0,0,1499.07,1820.38,1963.13)">
            <path d="M0.122,-0L0.035,-0L0.155,-0.429C0.158,-0.437 0.16,-0.446 0.162,-0.456C0.163,-0.465 0.163,-0.473 0.16,-0.481C0.157,-0.488 0.151,-0.491 0.14,-0.491C0.125,-0.491 0.112,-0.484 0.101,-0.469C0.09,-0.455 0.077,-0.428 0.063,-0.389L0.05,-0.352L0.031,-0.352L0.056,-0.425C0.071,-0.467 0.089,-0.495 0.111,-0.508C0.132,-0.521 0.154,-0.528 0.175,-0.528C0.202,-0.528 0.219,-0.521 0.227,-0.506C0.234,-0.491 0.236,-0.473 0.233,-0.452C0.23,-0.431 0.225,-0.409 0.22,-0.388L0.122,-0ZM0.168,-0.208C0.191,-0.268 0.214,-0.318 0.236,-0.359C0.258,-0.4 0.28,-0.433 0.301,-0.458C0.322,-0.483 0.344,-0.5 0.367,-0.511C0.389,-0.523 0.412,-0.528 0.436,-0.528C0.467,-0.528 0.489,-0.521 0.5,-0.505C0.512,-0.491 0.517,-0.471 0.516,-0.449C0.515,-0.426 0.51,-0.402 0.502,-0.377L0.405,-0.085C0.399,-0.067 0.397,-0.052 0.398,-0.041C0.399,-0.029 0.406,-0.023 0.421,-0.023C0.434,-0.023 0.446,-0.03 0.459,-0.044C0.471,-0.058 0.484,-0.085 0.498,-0.125L0.511,-0.162L0.53,-0.162L0.505,-0.089C0.49,-0.047 0.472,-0.019 0.449,-0.006C0.426,0.007 0.405,0.014 0.384,0.014C0.354,0.014 0.333,0.004 0.321,-0.015C0.314,-0.027 0.311,-0.043 0.314,-0.062C0.317,-0.081 0.322,-0.103 0.33,-0.126L0.425,-0.412C0.428,-0.421 0.431,-0.433 0.434,-0.446C0.436,-0.459 0.435,-0.47 0.432,-0.481C0.429,-0.491 0.419,-0.496 0.403,-0.496C0.383,-0.496 0.362,-0.485 0.339,-0.464C0.316,-0.442 0.292,-0.412 0.268,-0.373C0.244,-0.334 0.221,-0.289 0.199,-0.237C0.176,-0.185 0.156,-0.129 0.139,-0.068L0.168,-0.208Z" style="fill:white;fill-rule:nonzero;"/>
        </g>
        <g transform="matrix(1499.07,0,0,1499.07,2689.84,1963.13)">
            <path d="M0.03,-0.806C0.097,-0.745 0.151,-0.673 0.191,-0.591C0.23,-0.508 0.25,-0.415 0.25,-0.312C0.25,-0.209 0.23,-0.116 0.191,-0.034C0.151,0.049 0.097,0.121 0.03,0.182L0.016,0.169C0.072,0.104 0.111,0.032 0.133,-0.046C0.155,-0.123 0.166,-0.212 0.166,-0.312C0.166,-0.412 0.155,-0.501 0.133,-0.579C0.111,-0.656 0.072,-0.728 0.016,-0.793L0.03,-0.806Z" style="fill:white;fill-rule:nonzero;"/>
        </g>
    </g>
    <defs>
        <linearGradient id="_Linear1" x1="0" y1="0" x2="1" y2="0" gradientUnits="userSpaceOnUse" gradientTransform="matrix(2232.94,2232.94,-2232.94,2232.94,316.209,302.272)"><stop offset="0" style="stop-color:rgb(164,25,25);stop-opacity:1"/><stop offset="1" style="stop-color:rgb(99,1,1);stop-opacity:1"/></linearGradient>
    </defs>
</svg>
